<?xml version="1.0" standalone="yes"?>

<svg version="1.1" viewBox="0.0 0.0 1873.1784776902887 1068.5774278215224" fill="none" stroke="none" stroke-linecap="square" stroke-miterlimit="10" xmlns="http://www.w3.org/2000/svg" xmlns:xlink="http://www.w3.org/1999/xlink"><clipPath id="p.0"><path d="m0 0l1873.1785 0l0 1068.5774l-1873.1785 0l0 -1068.5774z" clip-rule="nonzero"></path></clipPath><g clip-path="url(#p.0)"><path fill="#000000" fill-opacity="0.0" d="m0 0l1873.1785 0l0 1068.5774l-1873.1785 0z" fill-rule="evenodd"></path><path fill="#000000" fill-opacity="0.0" d="m535.9685 534.3779l0 0c0 -234.1861 189.84534 -424.03146 424.0315 -424.03146l0 0c112.460205 0 220.31421 44.674614 299.83557 124.195946c79.52136 79.52135 124.19592 187.37541 124.19592 299.8355l0 0c0 234.18616 -189.84534 424.0315 -424.0315 424.0315l0 0c-234.18616 0 -424.0315 -189.84534 -424.0315 -424.0315z" fill-rule="evenodd"></path><path stroke="#f2daf8" stroke-width="24.0" stroke-linejoin="round" stroke-linecap="butt" d="m535.9685 534.3779l0 0c0 -234.1861 189.84534 -424.03146 424.0315 -424.03146l0 0c112.460205 0 220.31421 44.674614 299.83557 124.195946c79.52136 79.52135 124.19592 187.37541 124.19592 299.8355l0 0c0 234.18616 -189.84534 424.0315 -424.0315 424.0315l0 0c-234.18616 0 -424.0315 -189.84534 -424.0315 -424.0315z" fill-rule="evenodd"></path><path fill="#000000" fill-opacity="0.0" d="m1015.9685 124.57743c-16.712769 50.138283 -116.28339 14.6260605 -147.98425 56.913383c-22.221008 29.641693 -5.6903076 73.94617 -5.6903076 110.99213c0 16.237366 3.312317 34.868286 -5.6954956 48.37796c-2.9762573 4.463623 -12.432373 6.119812 -11.380615 11.380554c6.2735596 31.37918 62.15808 15.949432 93.91077 19.921265c49.67456 6.213623 99.4212 13.459259 147.98431 25.616821c34.59131 8.65979 80.67261 18.114624 93.916016 51.223083c3.1900635 7.975342 4.521118 21.19339 -2.8452148 25.611542c-11.504883 6.9003906 -33.845093 -6.310089 -39.84253 5.6903076c-13.064087 26.140167 5.1363525 70.3389 -19.921265 85.375336c-39.061523 23.439758 -96.29468 30.411743 -116.68237 71.1496c-13.880554 27.735535 -24.771118 56.86963 -36.992126 85.375305c-6.3653564 14.847229 -39.652344 15.367371 -36.997375 31.30188c3.4299316 20.585815 16.695679 50.087097 0 62.608887c-13.253357 9.940002 -32.05243 -10.291382 -45.532837 -19.921265c-32.253357 -23.040527 -49.20404 -71.88849 -42.687622 -110.98688c6.06604 -36.3963 34.146973 -68.398254 34.146973 -105.29657c0 -41.360046 -57.700623 -61.588867 -73.9895 -99.60629c-15.538696 -36.26654 7.977783 -88.77814 -19.921265 -116.677185c-34.98352 -34.98349 -103.09235 -35.43402 -125.217834 -79.68503c-6.0741577 -12.148285 1.0686035 -30.23848 -8.535461 -39.84253" fill-rule="evenodd"></path><path stroke="#f2daf8" stroke-width="24.0" stroke-linejoin="round" stroke-linecap="butt" d="m1015.9685 124.57743c-16.712769 50.138283 -116.28339 14.6260605 -147.98425 56.913383c-22.221008 29.641693 -5.6903076 73.94617 -5.6903076 110.99213c0 16.237366 3.312317 34.868286 -5.6954956 48.37796c-2.9762573 4.463623 -12.432373 6.119812 -11.380615 11.380554c6.2735596 31.37918 62.15808 15.949432 93.91077 19.921265c49.67456 6.213623 99.4212 13.459259 147.98431 25.616821c34.59131 8.65979 80.67261 18.114624 93.916016 51.223083c3.1900635 7.975342 4.521118 21.19339 -2.8452148 25.611542c-11.504883 6.9003906 -33.845093 -6.310089 -39.84253 5.6903076c-13.064087 26.140167 5.1363525 70.3389 -19.921265 85.375336c-39.061523 23.439758 -96.29468 30.411743 -116.68237 71.1496c-13.880554 27.735535 -24.771118 56.86963 -36.992126 85.375305c-6.3653564 14.847229 -39.652344 15.367371 -36.997375 31.30188c3.4299316 20.585815 16.695679 50.087097 0 62.608887c-13.253357 9.940002 -32.05243 -10.291382 -45.532837 -19.921265c-32.253357 -23.040527 -49.20404 -71.88849 -42.687622 -110.98688c6.06604 -36.3963 34.146973 -68.398254 34.146973 -105.29657c0 -41.360046 -57.700623 -61.588867 -73.9895 -99.60629c-15.538696 -36.26654 7.977783 -88.77814 -19.921265 -116.677185c-34.98352 -34.98349 -103.09235 -35.43402 -125.217834 -79.68503c-6.0741577 -12.148285 1.0686035 -30.23848 -8.535461 -39.84253" fill-rule="evenodd"></path><path fill="#000000" fill-opacity="0.0" d="m1185.4651 185.04987c-1.8691406 15.222626 -3.116211 31.83229 2.8201904 45.933502c12.854736 30.535034 60.482178 35.497925 73.343506 66.03006c19.640015 46.62381 -25.126709 106.789825 -2.8253174 152.15671c16.108643 32.769104 42.4115 60.365387 70.52356 83.25644c11.467651 9.337891 29.203491 14.526672 33.846436 28.707092c4.129883 12.613342 -11.58313 24.072815 -19.745972 34.45282c-15.81958 20.116272 -28.15918 42.98694 -39.486694 66.03003c-11.3671875 23.123901 15.134888 59.228577 -2.8253174 77.51611c-20.860596 21.240845 -33.846436 53.218933 -33.846436 83.25116" fill-rule="evenodd"></path><path stroke="#f2daf8" stroke-width="24.0" stroke-linejoin="round" stroke-linecap="butt" d="m1185.4651 185.04987c-1.8691406 15.222626 -3.116211 31.83229 2.8201904 45.933502c12.854736 30.535034 60.482178 35.497925 73.343506 66.03006c19.640015 46.62381 -25.126709 106.789825 -2.8253174 152.15671c16.108643 32.769104 42.4115 60.365387 70.52356 83.25644c11.467651 9.337891 29.203491 14.526672 33.846436 28.707092c4.129883 12.613342 -11.58313 24.072815 -19.745972 34.45282c-15.81958 20.116272 -28.15918 42.98694 -39.486694 66.03003c-11.3671875 23.123901 15.134888 59.228577 -2.8253174 77.51611c-20.860596 21.240845 -33.846436 53.218933 -33.846436 83.25116" fill-rule="evenodd"></path><path fill="#000000" fill-opacity="0.0" d="m826.0105 945.6029c0 -13.17926 8.622009 -27.36853 19.921265 -34.152283c15.53717 -9.328003 37.857666 2.411255 54.068237 -5.6902466c11.819458 -5.9070435 8.322876 -25.178467 14.230957 -36.997375c5.5791016 -11.160706 24.89215 -8.71521 36.997375 -5.6903076c21.406067 5.34906 8.725464 49.889038 28.456726 59.763794c13.169495 6.5908203 28.400269 -7.815674 42.687622 -11.385864c27.36377 -6.8377686 59.750244 8.508728 79.68506 28.461975" fill-rule="evenodd"></path><path stroke="#f2daf8" stroke-width="24.0" stroke-linejoin="round" stroke-linecap="butt" d="m826.0105 945.6029c0 -13.17926 8.622009 -27.36853 19.921265 -34.152283c15.53717 -9.328003 37.857666 2.411255 54.068237 -5.6902466c11.819458 -5.9070435 8.322876 -25.178467 14.230957 -36.997375c5.5791016 -11.160706 24.89215 -8.71521 36.997375 -5.6903076c21.406067 5.34906 8.725464 49.889038 28.456726 59.763794c13.169495 6.5908203 28.400269 -7.815674 42.687622 -11.385864c27.36377 -6.8377686 59.750244 8.508728 79.68506 28.461975" fill-rule="evenodd"></path><path fill="#000000" fill-opacity="0.0" d="m1075.8086 400.93896l0 0c-147.76898 86.37396 -254.77905 221.19495 -286.75256 361.27686l484.92578 -22.22174z" fill-rule="evenodd"></path><path fill="#000000" fill-opacity="0.0" d="m1075.8086 400.93896l0 0c-147.76898 86.37396 -254.77905 221.19495 -286.75256 361.27686" fill-rule="evenodd"></path><path stroke="#6a7487" stroke-width="24.0" stroke-linejoin="round" stroke-linecap="butt" d="m1075.8086 400.93896l0 0c-147.76898 86.37396 -254.77905 221.19495 -286.75256 361.27686" fill-rule="evenodd"></path><path fill="#000000" fill-opacity="0.0" d="m847.81366 511.2651l0 0c0 -23.587372 11.464294 -42.70868 25.606262 -42.70868l0 0c6.79126 0 13.304321 4.4996643 18.106384 12.509094c4.802124 8.009399 7.499939 18.872528 7.499939 30.199585l0 0c0 23.58731 -11.464355 42.70865 -25.606323 42.70865l0 0c-14.141968 0 -25.606262 -19.121338 -25.606262 -42.70865z" fill-rule="evenodd"></path><path stroke="#6a7487" stroke-width="24.0" stroke-linejoin="round" stroke-linecap="butt" d="m847.81366 511.2651l0 0c0 -23.587372 11.464294 -42.70868 25.606262 -42.70868l0 0c6.79126 0 13.304321 4.4996643 18.106384 12.509094c4.802124 8.009399 7.499939 18.872528 7.499939 30.199585l0 0c0 23.58731 -11.464355 42.70865 -25.606323 42.70865l0 0c-14.141968 0 -25.606262 -19.121338 -25.606262 -42.70865z" fill-rule="evenodd"></path><path fill="#000000" fill-opacity="0.0" d="m896.0341 470.3517l0 0c0 -23.587341 11.464355 -42.70868 25.606323 -42.70868l0 0c6.7911987 0 13.30426 4.4996643 18.106384 12.509094c4.802124 8.00943 7.499878 18.872528 7.499878 30.199585l0 0c0 23.587341 -11.464294 42.70865 -25.606262 42.70865l0 0c-14.141968 0 -25.606323 -19.121307 -25.606323 -42.70865z" fill-rule="evenodd"></path><path stroke="#6a7487" stroke-width="24.0" stroke-linejoin="round" stroke-linecap="butt" d="m896.0341 470.3517l0 0c0 -23.587341 11.464355 -42.70868 25.606323 -42.70868l0 0c6.7911987 0 13.30426 4.4996643 18.106384 12.509094c4.802124 8.00943 7.499878 18.872528 7.499878 30.199585l0 0c0 23.587341 -11.464294 42.70865 -25.606262 42.70865l0 0c-14.141968 0 -25.606323 -19.121307 -25.606323 -42.70865z" fill-rule="evenodd"></path><path fill="#000000" fill-opacity="0.0" d="m946.32806 419.72702l0 0c0 -23.587341 11.464355 -42.70865 25.606323 -42.70865l0 0c6.7911987 0 13.30426 4.4996643 18.106384 12.509064c4.802124 8.00943 7.499939 18.872559 7.499939 30.199585l0 0c0 23.587341 -11.464355 42.70868 -25.606323 42.70868l0 0c-14.141968 0 -25.606323 -19.121338 -25.606323 -42.70868z" fill-rule="evenodd"></path><path stroke="#6a7487" stroke-width="24.0" stroke-linejoin="round" stroke-linecap="butt" d="m946.32806 419.72702l0 0c0 -23.587341 11.464355 -42.70865 25.606323 -42.70865l0 0c6.7911987 0 13.30426 4.4996643 18.106384 12.509064c4.802124 8.00943 7.499939 18.872559 7.499939 30.199585l0 0c0 23.587341 -11.464355 42.70868 -25.606323 42.70868l0 0c-14.141968 0 -25.606323 -19.121338 -25.606323 -42.70868z" fill-rule="evenodd"></path><path fill="#000000" fill-opacity="0.0" d="m997.5407 384.9344l0 0c0 -23.587341 12.796875 -42.70868 28.582703 -42.70868l0 0c7.5805664 0 14.850708 4.4996643 20.210938 12.509094c5.3603516 8.00943 8.371704 18.872528 8.371704 30.199585l0 0c0 23.587341 -12.796875 42.70865 -28.582642 42.70865l0 0c-15.785828 0 -28.582703 -19.121307 -28.582703 -42.70865z" fill-rule="evenodd"></path><path stroke="#6a7487" stroke-width="24.0" stroke-linejoin="round" stroke-linecap="butt" d="m997.5407 384.9344l0 0c0 -23.587341 12.796875 -42.70868 28.582703 -42.70868l0 0c7.5805664 0 14.850708 4.4996643 20.210938 12.509094c5.3603516 8.00943 8.371704 18.872528 8.371704 30.199585l0 0c0 23.587341 -12.796875 42.70865 -28.582642 42.70865l0 0c-15.785828 0 -28.582703 -19.121307 -28.582703 -42.70865z" fill-rule="evenodd"></path><path fill="#000000" fill-opacity="0.0" d="m1088.227 352.51556l0 0c16.68164 -16.68161 38.31299 -22.096497 48.31494 -12.094513l0 0c4.8031006 4.803131 6.227295 12.591827 3.9591064 21.652649c-2.2681885 9.060791 -8.042725 18.65152 -16.053589 26.662323l0 0c-16.68164 16.68161 -38.31299 22.096497 -48.31494 12.094482l0 0c-10.001953 -10.002014 -4.587158 -31.633362 12.094482 -48.31494z" fill-rule="evenodd"></path><path stroke="#6a7487" stroke-width="24.0" stroke-linejoin="round" stroke-linecap="butt" d="m1088.227 352.51556l0 0c16.68164 -16.68161 38.31299 -22.096497 48.31494 -12.094513l0 0c4.8031006 4.803131 6.227295 12.591827 3.9591064 21.652649c-2.2681885 9.060791 -8.042725 18.65152 -16.053589 26.662323l0 0c-16.68164 16.68161 -38.31299 22.096497 -48.31494 12.094482l0 0c-10.001953 -10.002014 -4.587158 -31.633362 12.094482 -48.31494z" fill-rule="evenodd"></path><path fill="#000000" fill-opacity="0.0" d="m926.0879 606.7924l0 0c23.569946 0.887146 43.11432 -9.858032 43.653564 -24.0l0 0c0.25891113 -6.7911987 -3.9890747 -13.473511 -11.809448 -18.576843c-7.8204346 -5.1033936 -18.572693 -8.209717 -29.891357 -8.635742l0 0c-23.569946 -0.887146 -43.11432 9.858032 -43.653564 24.0l0 0c-0.5392456 14.141968 18.13086 26.32544 41.700806 27.212585z" fill-rule="evenodd"></path><path stroke="#6a7487" stroke-width="24.0" stroke-linejoin="round" stroke-linecap="butt" d="m926.0879 606.7924l0 0c23.569946 0.887146 43.11432 -9.858032 43.653564 -24.0l0 0c0.25891113 -6.7911987 -3.9890747 -13.473511 -11.809448 -18.576843c-7.8204346 -5.1033936 -18.572693 -8.209717 -29.891357 -8.635742l0 0c-23.569946 -0.887146 -43.11432 9.858032 -43.653564 24.0l0 0c-0.5392456 14.141968 18.13086 26.32544 41.700806 27.212585z" fill-rule="evenodd"></path><path fill="#000000" fill-opacity="0.0" d="m963.1373 558.7627l0 0c23.569946 0.88708496 43.11432 -9.858032 43.653503 -24.0l0 0c0.25897217 -6.79126 -3.9890137 -13.473511 -11.809448 -18.576904c-7.8203735 -5.1033325 -18.572632 -8.209686 -29.891296 -8.635712l0 0c-23.569946 -0.887146 -43.11432 9.858002 -43.653564 23.99997l0 0c-0.5392456 14.141968 18.13086 26.3255 41.700806 27.212646z" fill-rule="evenodd"></path><path stroke="#6a7487" stroke-width="24.0" stroke-linejoin="round" stroke-linecap="butt" d="m963.1373 558.7627l0 0c23.569946 0.88708496 43.11432 -9.858032 43.653503 -24.0l0 0c0.25897217 -6.79126 -3.9890137 -13.473511 -11.809448 -18.576904c-7.8203735 -5.1033325 -18.572632 -8.209686 -29.891296 -8.635712l0 0c-23.569946 -0.887146 -43.11432 9.858002 -43.653564 23.99997l0 0c-0.5392456 14.141968 18.13086 26.3255 41.700806 27.212646z" fill-rule="evenodd"></path><path fill="#000000" fill-opacity="0.0" d="m1016.2425 511.45422l0 0c23.570007 0.887146 43.11432 -9.858032 43.653503 -24.0l0 0c0.2590332 -6.7911987 -3.9890137 -13.473511 -11.809448 -18.576843c-7.8203125 -5.103363 -18.572632 -8.209717 -29.891296 -8.635742l0 0c-23.569946 -0.887146 -43.11432 9.858032 -43.653564 24.0l0 0c-0.5392456 14.141968 18.13086 26.32547 41.700806 27.212585z" fill-rule="evenodd"></path><path stroke="#6a7487" stroke-width="24.0" stroke-linejoin="round" stroke-linecap="butt" d="m1016.2425 511.45422l0 0c23.570007 0.887146 43.11432 -9.858032 43.653503 -24.0l0 0c0.2590332 -6.7911987 -3.9890137 -13.473511 -11.809448 -18.576843c-7.8203125 -5.103363 -18.572632 -8.209717 -29.891296 -8.635742l0 0c-23.569946 -0.887146 -43.11432 9.858032 -43.653564 24.0l0 0c-0.5392456 14.141968 18.13086 26.32547 41.700806 27.212585z" fill-rule="evenodd"></path><path fill="#000000" fill-opacity="0.0" d="m1077.2711 473.67978l0 0c23.569946 0.887146 43.128418 -10.288116 43.68506 -24.960602l0 0c0.2672119 -7.04599 -3.9727783 -13.972626 -11.787231 -19.256134c-7.814453 -5.2835083 -18.563477 -8.491089 -29.88208 -8.917114l0 0c-23.569946 -0.8871155 -43.128418 10.288116 -43.68506 24.960632l0 0c-0.5566406 14.672516 18.099365 27.286102 41.66931 28.173218z" fill-rule="evenodd"></path><path stroke="#6a7487" stroke-width="24.0" stroke-linejoin="round" stroke-linecap="butt" d="m1077.2711 473.67978l0 0c23.569946 0.887146 43.128418 -10.288116 43.68506 -24.960602l0 0c0.2672119 -7.04599 -3.9727783 -13.972626 -11.787231 -19.256134c-7.814453 -5.2835083 -18.563477 -8.491089 -29.88208 -8.917114l0 0c-23.569946 -0.8871155 -43.128418 10.288116 -43.68506 24.960632l0 0c-0.5566406 14.672516 18.099365 27.286102 41.66931 28.173218z" fill-rule="evenodd"></path></g></svg>

