<?xml version="1.0" standalone="yes"?>

<svg version="1.1" viewBox="0.0 0.0 1873.1784776902887 1068.5774278215224" fill="none" stroke="none" stroke-linecap="square" stroke-miterlimit="10" xmlns="http://www.w3.org/2000/svg" xmlns:xlink="http://www.w3.org/1999/xlink"><clipPath id="p.0"><path d="m0 0l1873.1785 0l0 1068.5774l-1873.1785 0l0 -1068.5774z" clip-rule="nonzero"></path></clipPath><g clip-path="url(#p.0)"><path fill="#000000" fill-opacity="0.0" d="m0 0l1873.1785 0l0 1068.5774l-1873.1785 0z" fill-rule="evenodd"></path><path fill="#000000" fill-opacity="0.0" d="m789.3884 449.90814l0 0c0 -234.18613 189.8454 -424.0315 424.0315 -424.0315l0 0c112.460205 0 220.31421 44.67462 299.83557 124.195946c79.52136 79.52133 124.19592 187.37541 124.19592 299.83557l0 0c0 234.1861 -189.84534 424.0315 -424.0315 424.0315l0 0c-234.1861 0 -424.0315 -189.8454 -424.0315 -424.0315z" fill-rule="evenodd"></path><path stroke="#f2daf8" stroke-width="24.0" stroke-linejoin="round" stroke-linecap="butt" d="m789.3884 449.90814l0 0c0 -234.18613 189.8454 -424.0315 424.0315 -424.0315l0 0c112.460205 0 220.31421 44.67462 299.83557 124.195946c79.52136 79.52133 124.19592 187.37541 124.19592 299.83557l0 0c0 234.1861 -189.84534 424.0315 -424.0315 424.0315l0 0c-234.1861 0 -424.0315 -189.8454 -424.0315 -424.0315z" fill-rule="evenodd"></path><path fill="#000000" fill-opacity="0.0" d="m1269.3884 40.107613c-16.712769 50.138283 -116.283325 14.626057 -147.98425 56.913383c-22.220947 29.641693 -5.6903076 73.94617 -5.6903076 110.99213c0 16.23735 3.312378 34.8683 -5.6954346 48.37796c-2.9763184 4.463623 -12.432373 6.119812 -11.380615 11.380585c6.2734375 31.37915 62.15808 15.949402 93.91077 19.921234c49.67456 6.213623 99.42114 13.459259 147.98425 25.616821c34.59143 8.65979 80.67261 18.114624 93.916016 51.223083c3.1900635 7.975342 4.521118 21.19339 -2.8452148 25.611542c-11.504883 6.900421 -33.845093 -6.310089 -39.84253 5.6903076c-13.063965 26.140167 5.1363525 70.3389 -19.921265 85.375305c-39.061523 23.43982 -96.29468 30.411804 -116.68237 71.1496c-13.880493 27.735535 -24.771118 56.86963 -36.992065 85.37537c-6.3653564 14.847168 -39.652344 15.36731 -36.997437 31.301819c3.4299316 20.585876 16.695679 50.08716 0 62.608948c-13.253296 9.940002 -32.05237 -10.291443 -45.532837 -19.921265c-32.253296 -23.040588 -49.20398 -71.88849 -42.687622 -110.98688c6.06604 -36.3963 34.146973 -68.398254 34.146973 -105.2966c0 -41.360016 -57.70056 -61.588898 -73.9895 -99.60629c-15.538696 -36.26654 7.977783 -88.77814 -19.921265 -116.677185c-34.98346 -34.98349 -103.09235 -35.43402 -125.217834 -79.68503c-6.0741577 -12.14827 1.0686035 -30.238464 -8.535461 -39.842514" fill-rule="evenodd"></path><path stroke="#f2daf8" stroke-width="24.0" stroke-linejoin="round" stroke-linecap="butt" d="m1269.3884 40.107613c-16.712769 50.138283 -116.283325 14.626057 -147.98425 56.913383c-22.220947 29.641693 -5.6903076 73.94617 -5.6903076 110.99213c0 16.23735 3.312378 34.8683 -5.6954346 48.37796c-2.9763184 4.463623 -12.432373 6.119812 -11.380615 11.380585c6.2734375 31.37915 62.15808 15.949402 93.91077 19.921234c49.67456 6.213623 99.42114 13.459259 147.98425 25.616821c34.59143 8.65979 80.67261 18.114624 93.916016 51.223083c3.1900635 7.975342 4.521118 21.19339 -2.8452148 25.611542c-11.504883 6.900421 -33.845093 -6.310089 -39.84253 5.6903076c-13.063965 26.140167 5.1363525 70.3389 -19.921265 85.375305c-39.061523 23.43982 -96.29468 30.411804 -116.68237 71.1496c-13.880493 27.735535 -24.771118 56.86963 -36.992065 85.37537c-6.3653564 14.847168 -39.652344 15.36731 -36.997437 31.301819c3.4299316 20.585876 16.695679 50.08716 0 62.608948c-13.253296 9.940002 -32.05237 -10.291443 -45.532837 -19.921265c-32.253296 -23.040588 -49.20398 -71.88849 -42.687622 -110.98688c6.06604 -36.3963 34.146973 -68.398254 34.146973 -105.2966c0 -41.360016 -57.70056 -61.588898 -73.9895 -99.60629c-15.538696 -36.26654 7.977783 -88.77814 -19.921265 -116.677185c-34.98346 -34.98349 -103.09235 -35.43402 -125.217834 -79.68503c-6.0741577 -12.14827 1.0686035 -30.238464 -8.535461 -39.842514" fill-rule="evenodd"></path><path fill="#000000" fill-opacity="0.0" d="m1438.885 100.580055c-1.8691406 15.222618 -3.116211 31.832283 2.8201904 45.933495c12.854736 30.535034 60.482178 35.49794 73.34363 66.03006c19.639893 46.62381 -25.126831 106.789825 -2.8253174 152.15671c16.10852 32.769104 42.411377 60.365387 70.52344 83.25644c11.467651 9.33786 29.203613 14.526672 33.846436 28.707123c4.129883 12.613342 -11.583008 24.072815 -19.74585 34.45276c-15.81958 20.116333 -28.159302 42.987 -39.486694 66.03009c-11.36731 23.12384 15.134766 59.228577 -2.8253174 77.51605c-20.860718 21.240845 -33.846558 53.218994 -33.846558 83.25116" fill-rule="evenodd"></path><path stroke="#f2daf8" stroke-width="24.0" stroke-linejoin="round" stroke-linecap="butt" d="m1438.885 100.580055c-1.8691406 15.222618 -3.116211 31.832283 2.8201904 45.933495c12.854736 30.535034 60.482178 35.49794 73.34363 66.03006c19.639893 46.62381 -25.126831 106.789825 -2.8253174 152.15671c16.10852 32.769104 42.411377 60.365387 70.52344 83.25644c11.467651 9.33786 29.203613 14.526672 33.846436 28.707123c4.129883 12.613342 -11.583008 24.072815 -19.74585 34.45276c-15.81958 20.116333 -28.159302 42.987 -39.486694 66.03009c-11.36731 23.12384 15.134766 59.228577 -2.8253174 77.51605c-20.860718 21.240845 -33.846558 53.218994 -33.846558 83.25116" fill-rule="evenodd"></path><path fill="#000000" fill-opacity="0.0" d="m1079.4304 861.13306c0 -13.17926 8.62207 -27.36847 19.921265 -34.15222c15.537231 -9.328064 37.857666 2.411255 54.068237 -5.6903076c11.819458 -5.9069824 8.322876 -25.178467 14.230957 -36.997375c5.5791016 -11.160706 24.892212 -8.71521 36.997437 -5.6902466c21.406006 5.348999 8.725464 49.889038 28.456665 59.763733c13.169556 6.5908203 28.400269 -7.815613 42.687622 -11.385803c27.36377 -6.8377686 59.750244 8.508667 79.68506 28.461914" fill-rule="evenodd"></path><path stroke="#f2daf8" stroke-width="24.0" stroke-linejoin="round" stroke-linecap="butt" d="m1079.4304 861.13306c0 -13.17926 8.62207 -27.36847 19.921265 -34.15222c15.537231 -9.328064 37.857666 2.411255 54.068237 -5.6903076c11.819458 -5.9069824 8.322876 -25.178467 14.230957 -36.997375c5.5791016 -11.160706 24.892212 -8.71521 36.997437 -5.6902466c21.406006 5.348999 8.725464 49.889038 28.456665 59.763733c13.169556 6.5908203 28.400269 -7.815613 42.687622 -11.385803c27.36377 -6.8377686 59.750244 8.508667 79.68506 28.461914" fill-rule="evenodd"></path><path fill="#000000" fill-opacity="0.0" d="m1329.2285 316.46915l0 0c-147.76892 86.37396 -254.77905 221.19492 -286.75256 361.27682l484.92578 -22.22168z" fill-rule="evenodd"></path><path fill="#000000" fill-opacity="0.0" d="m1329.2285 316.46915l0 0c-147.76892 86.37396 -254.77905 221.19492 -286.75256 361.27682" fill-rule="evenodd"></path><path stroke="#6a7487" stroke-width="24.0" stroke-linejoin="round" stroke-linecap="butt" d="m1329.2285 316.46915l0 0c-147.76892 86.37396 -254.77905 221.19492 -286.75256 361.27682" fill-rule="evenodd"></path><path fill="#000000" fill-opacity="0.0" d="m1101.2336 426.7953l0 0c0 -23.587341 11.464233 -42.70868 25.606201 -42.70868l0 0c6.79126 0 13.304321 4.4996643 18.106445 12.509094c4.802124 8.00943 7.499878 18.872528 7.499878 30.199585l0 0c0 23.587341 -11.464355 42.70865 -25.606323 42.70865l0 0c-14.141968 0 -25.606201 -19.121307 -25.606201 -42.70865z" fill-rule="evenodd"></path><path stroke="#6a7487" stroke-width="24.0" stroke-linejoin="round" stroke-linecap="butt" d="m1101.2336 426.7953l0 0c0 -23.587341 11.464233 -42.70868 25.606201 -42.70868l0 0c6.79126 0 13.304321 4.4996643 18.106445 12.509094c4.802124 8.00943 7.499878 18.872528 7.499878 30.199585l0 0c0 23.587341 -11.464355 42.70865 -25.606323 42.70865l0 0c-14.141968 0 -25.606201 -19.121307 -25.606201 -42.70865z" fill-rule="evenodd"></path><path fill="#000000" fill-opacity="0.0" d="m1149.4541 385.8819l0 0c0 -23.587341 11.464355 -42.70868 25.606323 -42.70868l0 0c6.7911377 0 13.304199 4.4996643 18.106323 12.509094c4.802124 8.00943 7.499878 18.872528 7.499878 30.199585l0 0c0 23.587341 -11.464233 42.70865 -25.606201 42.70865l0 0c-14.141968 0 -25.606323 -19.121307 -25.606323 -42.70865z" fill-rule="evenodd"></path><path stroke="#6a7487" stroke-width="24.0" stroke-linejoin="round" stroke-linecap="butt" d="m1149.4541 385.8819l0 0c0 -23.587341 11.464355 -42.70868 25.606323 -42.70868l0 0c6.7911377 0 13.304199 4.4996643 18.106323 12.509094c4.802124 8.00943 7.499878 18.872528 7.499878 30.199585l0 0c0 23.587341 -11.464233 42.70865 -25.606201 42.70865l0 0c-14.141968 0 -25.606323 -19.121307 -25.606323 -42.70865z" fill-rule="evenodd"></path><path fill="#000000" fill-opacity="0.0" d="m1199.748 335.25723l0 0c0 -23.587372 11.464355 -42.70868 25.606323 -42.70868l0 0c6.7911377 0 13.304199 4.4996643 18.106323 12.509094c4.802124 8.009399 7.499878 18.872528 7.499878 30.199585l0 0c0 23.587341 -11.464233 42.70865 -25.606201 42.70865l0 0c-14.141968 0 -25.606323 -19.121307 -25.606323 -42.70865z" fill-rule="evenodd"></path><path stroke="#6a7487" stroke-width="24.0" stroke-linejoin="round" stroke-linecap="butt" d="m1199.748 335.25723l0 0c0 -23.587372 11.464355 -42.70868 25.606323 -42.70868l0 0c6.7911377 0 13.304199 4.4996643 18.106323 12.509094c4.802124 8.009399 7.499878 18.872528 7.499878 30.199585l0 0c0 23.587341 -11.464233 42.70865 -25.606201 42.70865l0 0c-14.141968 0 -25.606323 -19.121307 -25.606323 -42.70865z" fill-rule="evenodd"></path><path fill="#000000" fill-opacity="0.0" d="m1250.9606 300.46457l0 0c0 -23.587341 12.796997 -42.70865 28.582764 -42.70865l0 0c7.5805664 0 14.850708 4.499634 20.210938 12.509064c5.3603516 8.00943 8.371704 18.872528 8.371704 30.199585l0 0c0 23.587341 -12.796875 42.70865 -28.582642 42.70865l0 0c-15.785767 0 -28.582764 -19.121307 -28.582764 -42.70865z" fill-rule="evenodd"></path><path stroke="#6a7487" stroke-width="24.0" stroke-linejoin="round" stroke-linecap="butt" d="m1250.9606 300.46457l0 0c0 -23.587341 12.796997 -42.70865 28.582764 -42.70865l0 0c7.5805664 0 14.850708 4.499634 20.210938 12.509064c5.3603516 8.00943 8.371704 18.872528 8.371704 30.199585l0 0c0 23.587341 -12.796875 42.70865 -28.582642 42.70865l0 0c-15.785767 0 -28.582764 -19.121307 -28.582764 -42.70865z" fill-rule="evenodd"></path><path fill="#000000" fill-opacity="0.0" d="m1341.647 268.04575l0 0c16.68164 -16.681625 38.31299 -22.096512 48.31494 -12.094498l0 0c4.8032227 4.803116 6.227295 12.591812 3.9591064 21.652634c-2.2680664 9.060822 -8.042725 18.65152 -16.053589 26.662323l0 0c-16.681519 16.68161 -38.312866 22.096497 -48.31494 12.094482l0 0c-10.001953 -10.002014 -4.587036 -31.633331 12.094482 -48.31494z" fill-rule="evenodd"></path><path stroke="#6a7487" stroke-width="24.0" stroke-linejoin="round" stroke-linecap="butt" d="m1341.647 268.04575l0 0c16.68164 -16.681625 38.31299 -22.096512 48.31494 -12.094498l0 0c4.8032227 4.803116 6.227295 12.591812 3.9591064 21.652634c-2.2680664 9.060822 -8.042725 18.65152 -16.053589 26.662323l0 0c-16.681519 16.68161 -38.312866 22.096497 -48.31494 12.094482l0 0c-10.001953 -10.002014 -4.587036 -31.633331 12.094482 -48.31494z" fill-rule="evenodd"></path><path fill="#000000" fill-opacity="0.0" d="m1179.5078 522.32263l0 0c23.569946 0.88708496 43.11438 -9.858032 43.653564 -24.00003l0 0c0.25891113 -6.7911987 -3.9890137 -13.473511 -11.809448 -18.576843c-7.8204346 -5.103363 -18.572632 -8.209747 -29.891357 -8.635742l0 0c-23.569946 -0.887146 -43.114258 9.858032 -43.653564 24.0l0 0c-0.5391846 14.141968 18.13086 26.32547 41.700806 27.212616z" fill-rule="evenodd"></path><path stroke="#6a7487" stroke-width="24.0" stroke-linejoin="round" stroke-linecap="butt" d="m1179.5078 522.32263l0 0c23.569946 0.88708496 43.11438 -9.858032 43.653564 -24.00003l0 0c0.25891113 -6.7911987 -3.9890137 -13.473511 -11.809448 -18.576843c-7.8204346 -5.103363 -18.572632 -8.209747 -29.891357 -8.635742l0 0c-23.569946 -0.887146 -43.114258 9.858032 -43.653564 24.0l0 0c-0.5391846 14.141968 18.13086 26.32547 41.700806 27.212616z" fill-rule="evenodd"></path><path fill="#000000" fill-opacity="0.0" d="m1216.5573 474.29285l0 0c23.569946 0.887146 43.11438 -9.858032 43.653564 -24.0l0 0c0.25891113 -6.7911987 -3.9890137 -13.473511 -11.809448 -18.576843c-7.8204346 -5.103363 -18.572632 -8.209717 -29.891357 -8.635742l0 0c-23.569946 -0.887146 -43.114258 9.858032 -43.653564 24.0l0 0c-0.5391846 14.141968 18.13086 26.32547 41.700806 27.212585z" fill-rule="evenodd"></path><path stroke="#6a7487" stroke-width="24.0" stroke-linejoin="round" stroke-linecap="butt" d="m1216.5573 474.29285l0 0c23.569946 0.887146 43.11438 -9.858032 43.653564 -24.0l0 0c0.25891113 -6.7911987 -3.9890137 -13.473511 -11.809448 -18.576843c-7.8204346 -5.103363 -18.572632 -8.209717 -29.891357 -8.635742l0 0c-23.569946 -0.887146 -43.114258 9.858032 -43.653564 24.0l0 0c-0.5391846 14.141968 18.13086 26.32547 41.700806 27.212585z" fill-rule="evenodd"></path><path fill="#000000" fill-opacity="0.0" d="m1269.6625 426.9844l0 0c23.569946 0.887146 43.114258 -9.858002 43.653564 -24.0l0 0c0.25891113 -6.7911987 -3.9891357 -13.47348 -11.809448 -18.576843c-7.8204346 -5.103363 -18.572754 -8.209717 -29.891357 -8.635742l0 0c-23.569946 -0.887146 -43.11438 9.858032 -43.653564 24.0l0 0c-0.53930664 14.141968 18.13086 26.32547 41.700806 27.212585z" fill-rule="evenodd"></path><path stroke="#6a7487" stroke-width="24.0" stroke-linejoin="round" stroke-linecap="butt" d="m1269.6625 426.9844l0 0c23.569946 0.887146 43.114258 -9.858002 43.653564 -24.0l0 0c0.25891113 -6.7911987 -3.9891357 -13.47348 -11.809448 -18.576843c-7.8204346 -5.103363 -18.572754 -8.209717 -29.891357 -8.635742l0 0c-23.569946 -0.887146 -43.11438 9.858032 -43.653564 24.0l0 0c-0.53930664 14.141968 18.13086 26.32547 41.700806 27.212585z" fill-rule="evenodd"></path><path fill="#000000" fill-opacity="0.0" d="m1330.691 389.21l0 0c23.569946 0.8871155 43.128418 -10.288147 43.68506 -24.960632l0 0c0.26733398 -7.04599 -3.9726562 -13.972626 -11.787231 -19.256134c-7.814453 -5.2835083 -18.563354 -8.491089 -29.88208 -8.917114l0 0c-23.569946 -0.8871155 -43.128418 10.288116 -43.68506 24.960632l0 0c-0.5566406 14.672516 18.099365 27.286102 41.66931 28.173248z" fill-rule="evenodd"></path><path stroke="#6a7487" stroke-width="24.0" stroke-linejoin="round" stroke-linecap="butt" d="m1330.691 389.21l0 0c23.569946 0.8871155 43.128418 -10.288147 43.68506 -24.960632l0 0c0.26733398 -7.04599 -3.9726562 -13.972626 -11.787231 -19.256134c-7.814453 -5.2835083 -18.563354 -8.491089 -29.88208 -8.917114l0 0c-23.569946 -0.8871155 -43.128418 10.288116 -43.68506 24.960632l0 0c-0.5566406 14.672516 18.099365 27.286102 41.66931 28.173248z" fill-rule="evenodd"></path></g></svg>

